<svg xmlns="http://www.w3.org/2000/svg" 
    xmlns:xlink="http://www.w3.org/1999/xlink" 
    width="80" height="80">
    <style>
        .pen {
            fill: none;
            stroke-width: 4; 
            stroke-linecap: round; 
            stroke-linejoin: round;
        }
        .black {
            stroke: #444; 
        }
        .yellow {
            stroke: #EF8;
        }
    </style>
    <g transform="rotate(-15, 40, 40)">
        <g class="black pen">
            <path d="M30 55 v15 q10 10 20 0 v-15
                A20 20 0 1 0 30 55  
                M28 60 h24 m0 7 h-24"/>
        </g>
        <g class="pen">
            <animate attributeType="XML" attributeName="stroke" 
                values="#CD7;#EF8;#CD7" dur="1s" repeatCount="indefinite"/>
            <path d="M35 55 l-5 -20 a20 20 0 0 0 20 0 l-5 20"/>
        </g>
        <g class="yellow pen" stroke-dasharray="8,20">
            <animate attributeType="XML" attributeName="stroke-dashoffset" 
                from="0" to="27" dur="1s" repeatCount="indefinite"/>
            <path id="ray" d="M5 38 l7 0"/>
            <use xlink:href="#ray" transform="rotate(-30, 40, 37.5)"/>
            <use xlink:href="#ray" transform="rotate(-30, 40, 37.5)"/>
            <use xlink:href="#ray" transform="rotate(30, 40, 37.5)"/>
            <use xlink:href="#ray" transform="rotate(60, 40, 37.5)"/>
            <use xlink:href="#ray" transform="rotate(90, 40, 37.5)"/>
            <use xlink:href="#ray" transform="rotate(120, 40, 37.5)"/>
            <use xlink:href="#ray" transform="rotate(150, 40, 37.5)"/>
            <use xlink:href="#ray" transform="rotate(180, 40, 37.5)"/>
            <use xlink:href="#ray" transform="rotate(210, 40, 37.5)"/>
        </g>
    </g>
</svg>